<svg id="Layer_1" data-name="Layer 1" xmlns="http://www.w3.org/2000/svg" width="60" height="60" viewBox="0 0 60 60"><title>Artboard 3_users</title><g id="user_male1" data-name="user male1"><path d="M55.756,43.781c-.85-7.115-5.946-8.537-5.946-8.537l-12.169-4.27C34.81,33.534,30,32.966,30,32.966s-4.813.568-7.641-1.992l-12.17,4.27s-5.095,1.422-5.944,8.537L1.132,58.012H58.868Z" fill="#16bb9d"/><path d="M30,24.633a7.9,7.9,0,1,1-7.773,7.9A7.84,7.84,0,0,1,30,24.633Z" fill="#f4cc90"/><path d="M22.344,20.485c.359,1.783-.254,3.411-1.371,3.634s-2.309-1.04-2.664-2.822.255-3.41,1.371-3.634S21.988,18.7,22.344,20.485Z" fill="#ffd997"/><path d="M37.654,20.485c-.358,1.783.257,3.411,1.37,3.634s2.309-1.04,2.666-2.822-.254-3.41-1.37-3.634S38.01,18.7,37.654,20.485Z" fill="#ffd997"/><path d="M39.98,21.657c0,7.263-5.195,13.156-10.064,13.156S19.853,28.92,19.853,21.657,25.047,8.5,29.916,8.5,39.98,14.388,39.98,21.657Z" fill="#ffd997"/><path d="M39.973,21.226a18.384,18.384,0,0,0,.992-2.327C43.931,10.37,40.445,6,36.074,5.84l-.015.009A8.183,8.183,0,0,0,28.432,2,10.676,10.676,0,0,0,17.947,13.333a21.412,21.412,0,0,0,1.91,7.964s-.056-5.623,2.853-6.038,10.663.412,12.379-3.617C35.089,11.642,40.074,14.091,39.973,21.226Z" fill="#414141"/></g></svg>